# xmcd
#
# Track frame offsets: 
#        150
#        24001
#        43577
#        69673
#        92365
#        118854
#        151125
#        178165
#        202811
#        230090
#        249038
#        275362
#
# Disc length: 3923 seconds
#
# Revision: 0
# Processed by: cddbd v1.5.2PL0 Copyright (c) Steve Scherf et al.
# Submitted via: ExactAudioCopy v1.0b3
#
DISCID=900f510c
DTITLE=Kha Tu, Mong Thi, Truc Quyen - Doan Buon Dem Mua
DYEAR=2000
DGENRE=
TTITLE0=Mong Thi - Hoi tuong
TTITLE1=Truc Quyen - Doan buon dem mua
TTITLE2=Kha Tu - Biet den bao gio
TTITLE3=Mong Thi - Phai duyen hay no
TTITLE4=Kha Tu - Ta ao cuoi
TTITLE5=Truc Quyen - Co lai do ben Ha
TTITLE6=Kha Tu - Chuyen do khong em
TTITLE7=Mong Thi - Nguoi tinh va que huong
TTITLE8=Truc Quyen - Nguoi phu keo mo cau
TTITLE9=Kha Tu - Nhung dom mat hoa chau
TTITLE10=hoa tau - Ta ao cuoi
TTITLE11=hoa tau - Nhung dom mat hoa chau
EXTD=
EXTT0=
EXTT1=
EXTT2=
EXTT3=
EXTT4=
EXTT5=
EXTT6=
EXTT7=
EXTT8=
EXTT9=
EXTT10=
EXTT11=
PLAYORDER=
